<?xml version="1.0" standalone="no"?>
<!DOCTYPE svg PUBLIC "-//W3C//DTD SVG 20010904//EN" "http://www.w3.org/TR/2001/REC-SVG-20010904/DTD/svg10.dtd">
<!-- Created using Krita: http://krita.org -->
<svg xmlns="http://www.w3.org/2000/svg" 
    xmlns:xlink="http://www.w3.org/1999/xlink"
    xmlns:krita="http://krita.org/namespaces/svg/krita"
    xmlns:sodipodi="http://sodipodi.sourceforge.net/DTD/sodipodi-0.dtd"
    width="144pt"
    height="144pt"
    viewBox="0 0 144 144">
<defs/>
<rect id="shape0" transform="matrix(1.00000001411483 0 0 1.00000001411483 36.8325875254534 20.3647051503574)" fill="#bf214b" stroke="#bf214b" stroke-width="5.75999999999954" stroke-linecap="square" stroke-linejoin="bevel" width="80.2574113417219" height="115.870588032732" rx="12.3369922171488" ry="12.4199998246938"/><path id="shape0" transform="translate(26.785216452348, 11.5199999999991)" fill="none" stroke="#000000" stroke-width="5.75999999999954" stroke-linecap="square" stroke-linejoin="bevel" d="M16.38 3.55271e-15L69.3 0C78.3464 5.53915e-16 85.68 7.33358 85.68 16.38L85.68 104.58C85.68 113.626 78.3464 120.96 69.3 120.96L16.38 120.96C7.33358 120.96 2.44488e-15 113.626 3.55271e-15 104.58L0 16.38C1.10783e-15 7.33358 7.33358 2.9988e-15 16.38 3.55271e-15Z"/><text id="shape1" krita:useRichText="true" transform="translate(37.710000048291, 38.7647051814046)" fill="#000000" font-family="Pacifico, cursive" font-size="16" font-size-adjust="0.129032" font-stretch="normal" kerning="0" letter-spacing="0" word-spacing="0"><tspan x="0">P</tspan></text><text id="shape01" krita:useRichText="true" transform="matrix(1.00000001214872 0 0 1.00000001214872 88.1700006078577 124.044705882235)" fill="#000000" font-family="Pacifico, cursive" font-size="16" font-size-adjust="0.129032" font-stretch="normal" kerning="0" letter-spacing="0" word-spacing="0"><tspan x="0">P</tspan></text><path id="shape02" transform="matrix(-0.999999957870192 0 0 0.999999957870192 72.2492993860437 58.7681666157326)" fill="none" stroke="#01b0d9" stroke-width="4.31999999999965" stroke-linecap="square" stroke-linejoin="bevel" d="M0 0"/><path id="shape03" transform="matrix(0.999999983789104 0 0 0.999999983789104 50.5048503484499 51.9705727496958)" fill="#01b0d9" fill-rule="evenodd" stroke="#000000" stroke-width="4.31999999999965" stroke-linecap="square" stroke-linejoin="bevel" d="M21.4952 5.36747L19.3089 3.5964L18.2319 2.5531L17.0575 1.6696L15.7966 0.9592L14.4599 0.4352L13.0584 0.111L11.6029 0L10.1475 0.111L8.746 0.4352L7.4093 0.9592L6.1483 1.6696L4.9739 2.5531L3.897 3.5964L2.9283 4.786L2.0789 6.1087L1.3595 7.551L0.781 9.0997L0.3544 10.7413L0.0904 12.4625L0 14.25L0.0904 16.0375L0.3544 17.7587C1.73441 21.3456 3.41567 24.099 5.39818 26.0191L21.1284 42.5547C25.4747 38.1757 31.3579 32.331 38.7778 25.0209L41.6309 21.057L42.2093 19.5084L42.636 17.8667L42.8999 16.1455L42.9903 14.358L42.8999 12.5705L42.636 10.8493L42.2093 9.2077L41.6309 7.659L40.9115 6.2167L40.062 4.894L39.0934 3.7044L38.0164 2.6611L36.842 1.7776L35.581 1.0672L34.2444 0.5432L32.8429 0.219L31.3874 0.108L29.932 0.219L28.5305 0.5432L27.1938 1.0672L25.9328 1.7776L24.7584 2.6611L23.6814 3.7044L21.4951 5.49225"/>
</svg>